<svg width="64" height="64" viewBox="0 0 64 64" fill="none" xmlns="http://www.w3.org/2000/svg">
<g id="account_circle">
<mask id="mask0_20_81" style="mask-type:alpha" maskUnits="userSpaceOnUse" x="0" y="0" width="64" height="64">
<rect id="Bounding box" width="64" height="64" fill="#D9D9D9"/>
</mask>
<g mask="url(#mask0_20_81)">
<path id="account_circle_2" d="M15.6002 45.6C17.8668 43.8667 20.4002 42.5 23.2002 41.5C26.0002 40.5 28.9335 40 32.0002 40C35.0668 40 38.0002 40.5 40.8002 41.5C43.6002 42.5 46.1335 43.8667 48.4002 45.6C49.9557 43.7778 51.1668 41.7111 52.0335 39.4C52.9002 37.0889 53.3335 34.6222 53.3335 32C53.3335 26.0889 51.2557 21.0556 47.1002 16.9C42.9446 12.7445 37.9113 10.6667 32.0002 10.6667C26.0891 10.6667 21.0557 12.7445 16.9002 16.9C12.7446 21.0556 10.6668 26.0889 10.6668 32C10.6668 34.6222 11.1002 37.0889 11.9668 39.4C12.8335 41.7111 14.0446 43.7778 15.6002 45.6ZM32.0002 34.6667C29.3779 34.6667 27.1668 33.7667 25.3668 31.9667C23.5668 30.1667 22.6668 27.9556 22.6668 25.3333C22.6668 22.7111 23.5668 20.5 25.3668 18.7C27.1668 16.9 29.3779 16 32.0002 16C34.6224 16 36.8335 16.9 38.6335 18.7C40.4335 20.5 41.3335 22.7111 41.3335 25.3333C41.3335 27.9556 40.4335 30.1667 38.6335 31.9667C36.8335 33.7667 34.6224 34.6667 32.0002 34.6667ZM32.0002 58.6667C28.3113 58.6667 24.8446 57.9667 21.6002 56.5667C18.3557 55.1667 15.5335 53.2667 13.1335 50.8667C10.7335 48.4667 8.8335 45.6445 7.4335 42.4C6.0335 39.1556 5.3335 35.6889 5.3335 32C5.3335 28.3111 6.0335 24.8445 7.4335 21.6C8.8335 18.3556 10.7335 15.5333 13.1335 13.1333C15.5335 10.7333 18.3557 8.83334 21.6002 7.43334C24.8446 6.03334 28.3113 5.33334 32.0002 5.33334C35.6891 5.33334 39.1557 6.03334 42.4002 7.43334C45.6446 8.83334 48.4668 10.7333 50.8668 13.1333C53.2668 15.5333 55.1668 18.3556 56.5668 21.6C57.9668 24.8445 58.6668 28.3111 58.6668 32C58.6668 35.6889 57.9668 39.1556 56.5668 42.4C55.1668 45.6445 53.2668 48.4667 50.8668 50.8667C48.4668 53.2667 45.6446 55.1667 42.4002 56.5667C39.1557 57.9667 35.6891 58.6667 32.0002 58.6667ZM32.0002 53.3333C34.3557 53.3333 36.5779 52.9889 38.6668 52.3C40.7557 51.6111 42.6668 50.6222 44.4002 49.3333C42.6668 48.0445 40.7557 47.0556 38.6668 46.3667C36.5779 45.6778 34.3557 45.3333 32.0002 45.3333C29.6446 45.3333 27.4224 45.6778 25.3335 46.3667C23.2446 47.0556 21.3335 48.0445 19.6002 49.3333C21.3335 50.6222 23.2446 51.6111 25.3335 52.3C27.4224 52.9889 29.6446 53.3333 32.0002 53.3333ZM32.0002 29.3333C33.1557 29.3333 34.1113 28.9556 34.8668 28.2C35.6224 27.4445 36.0002 26.4889 36.0002 25.3333C36.0002 24.1778 35.6224 23.2222 34.8668 22.4667C34.1113 21.7111 33.1557 21.3333 32.0002 21.3333C30.8446 21.3333 29.8891 21.7111 29.1335 22.4667C28.3779 23.2222 28.0002 24.1778 28.0002 25.3333C28.0002 26.4889 28.3779 27.4445 29.1335 28.2C29.8891 28.9556 30.8446 29.3333 32.0002 29.3333Z" fill="#10CF93"/>
</g>
</g>
</svg>
