<svg width="64" height="65" viewBox="0 0 64 65" fill="none" xmlns="http://www.w3.org/2000/svg">
<mask id="mask0_44_13" style="mask-type:alpha" maskUnits="userSpaceOnUse" x="0" y="0" width="65" height="65">
<rect x="0.00341797" y="0.0137329" width="64" height="64" fill="#D9D9D9"/>
</mask>
<g mask="url(#mask0_44_13)">
<path d="M5.33691 45.3471V13.3471C5.33691 11.8804 5.85914 10.6248 6.90358 9.58038C7.94803 8.53594 9.20358 8.01372 10.6702 8.01372H53.3369C54.8036 8.01372 56.0591 8.53594 57.1036 9.58038C58.148 10.6248 58.6702 11.8804 58.6702 13.3471V45.3471C58.6702 46.8137 58.148 48.0693 57.1036 49.1137C56.0591 50.1582 54.8036 50.6804 53.3369 50.6804H48.0036C47.248 50.6804 46.6147 50.4248 46.1036 49.9137C45.5925 49.4026 45.3369 48.7693 45.3369 48.0137C45.3369 47.2582 45.5925 46.6248 46.1036 46.1137C46.6147 45.6026 47.248 45.3471 48.0036 45.3471H53.3369V13.3471H10.6702V45.3471H16.0036C16.7591 45.3471 17.3925 45.6026 17.9036 46.1137C18.4147 46.6248 18.6702 47.2582 18.6702 48.0137C18.6702 48.7693 18.4147 49.4026 17.9036 49.9137C17.3925 50.4248 16.7591 50.6804 16.0036 50.6804H10.6702C9.20358 50.6804 7.94803 50.1582 6.90358 49.1137C5.85914 48.0693 5.33691 46.8137 5.33691 45.3471ZM20.8036 56.0137C20.1814 56.0137 19.6925 55.8026 19.3369 55.3804C18.9814 54.9582 18.8036 54.5026 18.8036 54.0137C18.8036 53.7915 18.848 53.5582 18.9369 53.3137C19.0258 53.0693 19.1814 52.8359 19.4036 52.6137L30.1369 41.8804C30.4036 41.6137 30.6925 41.4137 31.0036 41.2804C31.3147 41.1471 31.648 41.0804 32.0036 41.0804C32.3591 41.0804 32.6925 41.1471 33.0036 41.2804C33.3147 41.4137 33.6036 41.6137 33.8702 41.8804L44.6036 52.6137C44.8258 52.8359 44.9814 53.0693 45.0702 53.3137C45.1591 53.5582 45.2036 53.7915 45.2036 54.0137C45.2036 54.5026 45.0258 54.9582 44.6702 55.3804C44.3147 55.8026 43.8258 56.0137 43.2036 56.0137H20.8036Z" fill="#10CF93"/>
</g>
</svg>
