<svg width="64" height="65" viewBox="0 0 64 65" fill="none" xmlns="http://www.w3.org/2000/svg">
<mask id="mask0_44_25" style="mask-type:alpha" maskUnits="userSpaceOnUse" x="0" y="0" width="65" height="65">
<rect x="0.00341797" y="0.0137329" width="64" height="64" fill="#D9D9D9"/>
</mask>
<g mask="url(#mask0_44_25)">
<path d="M10.6702 53.3471C9.20358 53.3471 7.94803 52.8248 6.90358 51.7804C5.85914 50.7359 5.33691 49.4804 5.33691 48.0137V39.0137C5.33691 38.5248 5.49247 38.1026 5.80358 37.7471C6.11469 37.3915 6.51469 37.1693 7.00358 37.0804C8.07025 36.7248 8.94803 36.0804 9.63691 35.1471C10.3258 34.2137 10.6702 33.1693 10.6702 32.0137C10.6702 30.8582 10.3258 29.8137 9.63691 28.8804C8.94803 27.9471 8.07025 27.3026 7.00358 26.9471C6.51469 26.8582 6.11469 26.6359 5.80358 26.2804C5.49247 25.9248 5.33691 25.5026 5.33691 25.0137V16.0137C5.33691 14.5471 5.85914 13.2915 6.90358 12.2471C7.94803 11.2026 9.20358 10.6804 10.6702 10.6804H53.3369C54.8036 10.6804 56.0591 11.2026 57.1036 12.2471C58.148 13.2915 58.6702 14.5471 58.6702 16.0137V25.0137C58.6702 25.5026 58.5147 25.9248 58.2036 26.2804C57.8925 26.6359 57.4925 26.8582 57.0036 26.9471C55.9369 27.3026 55.0591 27.9471 54.3702 28.8804C53.6814 29.8137 53.3369 30.8582 53.3369 32.0137C53.3369 33.1693 53.6814 34.2137 54.3702 35.1471C55.0591 36.0804 55.9369 36.7248 57.0036 37.0804C57.4925 37.1693 57.8925 37.3915 58.2036 37.7471C58.5147 38.1026 58.6702 38.5248 58.6702 39.0137V48.0137C58.6702 49.4804 58.148 50.7359 57.1036 51.7804C56.0591 52.8248 54.8036 53.3471 53.3369 53.3471H10.6702ZM10.6702 48.0137H53.3369V41.2137C51.6925 40.2359 50.3925 38.9359 49.4369 37.3137C48.4814 35.6915 48.0036 33.9248 48.0036 32.0137C48.0036 30.1026 48.4814 28.3359 49.4369 26.7137C50.3925 25.0915 51.6925 23.7915 53.3369 22.8137V16.0137H10.6702V22.8137C12.3147 23.7915 13.6147 25.0915 14.5702 26.7137C15.5258 28.3359 16.0036 30.1026 16.0036 32.0137C16.0036 33.9248 15.5258 35.6915 14.5702 37.3137C13.6147 38.9359 12.3147 40.2359 10.6702 41.2137V48.0137ZM32.0036 45.3471C32.7591 45.3471 33.3925 45.0915 33.9036 44.5804C34.4147 44.0693 34.6702 43.4359 34.6702 42.6804C34.6702 41.9248 34.4147 41.2915 33.9036 40.7804C33.3925 40.2693 32.7591 40.0137 32.0036 40.0137C31.248 40.0137 30.6147 40.2693 30.1036 40.7804C29.5925 41.2915 29.3369 41.9248 29.3369 42.6804C29.3369 43.4359 29.5925 44.0693 30.1036 44.5804C30.6147 45.0915 31.248 45.3471 32.0036 45.3471ZM32.0036 34.6804C32.7591 34.6804 33.3925 34.4248 33.9036 33.9137C34.4147 33.4026 34.6702 32.7693 34.6702 32.0137C34.6702 31.2582 34.4147 30.6248 33.9036 30.1137C33.3925 29.6026 32.7591 29.3471 32.0036 29.3471C31.248 29.3471 30.6147 29.6026 30.1036 30.1137C29.5925 30.6248 29.3369 31.2582 29.3369 32.0137C29.3369 32.7693 29.5925 33.4026 30.1036 33.9137C30.6147 34.4248 31.248 34.6804 32.0036 34.6804ZM32.0036 24.0137C32.7591 24.0137 33.3925 23.7582 33.9036 23.2471C34.4147 22.7359 34.6702 22.1026 34.6702 21.3471C34.6702 20.5915 34.4147 19.9582 33.9036 19.4471C33.3925 18.9359 32.7591 18.6804 32.0036 18.6804C31.248 18.6804 30.6147 18.9359 30.1036 19.4471C29.5925 19.9582 29.3369 20.5915 29.3369 21.3471C29.3369 22.1026 29.5925 22.7359 30.1036 23.2471C30.6147 23.7582 31.248 24.0137 32.0036 24.0137Z" fill="#10CF93"/>
</g>
</svg>
