<svg width="64" height="65" viewBox="0 0 64 65" fill="none" xmlns="http://www.w3.org/2000/svg">
<mask id="mask0_44_19" style="mask-type:alpha" maskUnits="userSpaceOnUse" x="0" y="0" width="65" height="65">
<rect x="0.00341797" y="0.0137329" width="64" height="64" fill="#D9D9D9"/>
</mask>
<g mask="url(#mask0_44_19)">
<path d="M21.3366 50.6804V52.0137C21.3366 53.1248 20.9477 54.0693 20.1699 54.8471C19.3921 55.6248 18.4477 56.0137 17.3366 56.0137C16.2255 56.0137 15.281 55.6248 14.5033 54.8471C13.7255 54.0693 13.3366 53.1248 13.3366 52.0137V47.8804C12.5366 46.9915 11.8921 46.0026 11.4033 44.9137C10.9144 43.8248 10.6699 42.636 10.6699 41.3471V16.0137C10.6699 12.3248 12.381 9.62484 15.8033 7.91373C19.2255 6.20262 24.6255 5.34706 32.0033 5.34706C39.6477 5.34706 45.1144 6.16928 48.4033 7.81373C51.6921 9.45817 53.3366 12.1915 53.3366 16.0137V41.3471C53.3366 42.636 53.0921 43.8248 52.6033 44.9137C52.1144 46.0026 51.4699 46.9915 50.6699 47.8804V52.0137C50.6699 53.1248 50.281 54.0693 49.5033 54.8471C48.7255 55.6248 47.781 56.0137 46.6699 56.0137C45.5588 56.0137 44.6144 55.6248 43.8366 54.8471C43.0588 54.0693 42.6699 53.1248 42.6699 52.0137V50.6804H21.3366ZM16.0033 26.6804H48.0033V18.6804H16.0033V26.6804ZM22.6699 42.6804C23.781 42.6804 24.7255 42.2915 25.5033 41.5137C26.281 40.736 26.6699 39.7915 26.6699 38.6804C26.6699 37.5693 26.281 36.6248 25.5033 35.8471C24.7255 35.0693 23.781 34.6804 22.6699 34.6804C21.5588 34.6804 20.6144 35.0693 19.8366 35.8471C19.0588 36.6248 18.6699 37.5693 18.6699 38.6804C18.6699 39.7915 19.0588 40.736 19.8366 41.5137C20.6144 42.2915 21.5588 42.6804 22.6699 42.6804ZM41.3366 42.6804C42.4477 42.6804 43.3921 42.2915 44.1699 41.5137C44.9477 40.736 45.3366 39.7915 45.3366 38.6804C45.3366 37.5693 44.9477 36.6248 44.1699 35.8471C43.3921 35.0693 42.4477 34.6804 41.3366 34.6804C40.2255 34.6804 39.281 35.0693 38.5033 35.8471C37.7255 36.6248 37.3366 37.5693 37.3366 38.6804C37.3366 39.7915 37.7255 40.736 38.5033 41.5137C39.281 42.2915 40.2255 42.6804 41.3366 42.6804ZM17.2033 13.3471H47.0699C46.4033 12.5915 44.9699 11.9582 42.7699 11.4471C40.5699 10.936 37.0255 10.6804 32.1366 10.6804C27.381 10.6804 23.9033 10.9582 21.7033 11.5137C19.5033 12.0693 18.0033 12.6804 17.2033 13.3471ZM21.3366 45.3471H42.6699C44.1366 45.3471 45.3921 44.8248 46.4366 43.7804C47.481 42.736 48.0033 41.4804 48.0033 40.0137V32.0137H16.0033V40.0137C16.0033 41.4804 16.5255 42.736 17.5699 43.7804C18.6144 44.8248 19.8699 45.3471 21.3366 45.3471Z" fill="#10CF93"/>
</g>
</svg>
