<svg width="64" height="64" viewBox="0 0 64 64" fill="none" xmlns="http://www.w3.org/2000/svg">
<g id="file_map">
<mask id="mask0_20_103" style="mask-type:alpha" maskUnits="userSpaceOnUse" x="0" y="0" width="64" height="64">
<rect id="Bounding box" width="64" height="64" fill="#D9D9D9"/>
</mask>
<g mask="url(#mask0_20_103)">
<path id="file_map_2" d="M13.3333 56C11.8667 56 10.6111 55.4778 9.56667 54.4333C8.52222 53.3889 8 52.1334 8 50.6667V13.3333C8 11.8667 8.52222 10.6111 9.56667 9.56668C10.6111 8.52224 11.8667 8.00002 13.3333 8.00002H50.6667C52.1333 8.00002 53.3889 8.52224 54.4333 9.56668C55.4778 10.6111 56 11.8667 56 13.3333V50.6667C56 52.1334 55.4778 53.3889 54.4333 54.4333C53.3889 55.4778 52.1333 56 50.6667 56H13.3333ZM13.3333 50.6667H50.6667V13.3333H13.3333V50.6667ZM32 16C28.6222 16 25.6444 17.1778 23.0667 19.5333C20.4889 21.8889 19.2 25.0889 19.2 29.1334C19.2 32.3778 20.4667 35.5778 23 38.7334C25.5333 41.8889 27.9333 44.4667 30.2 46.4667C30.4667 46.6889 30.7556 46.8556 31.0667 46.9667C31.3778 47.0778 31.6889 47.1334 32 47.1334C32.3111 47.1334 32.6222 47.0778 32.9333 46.9667C33.2444 46.8556 33.5333 46.6889 33.8 46.4667C36.0667 44.4667 38.4667 41.8889 41 38.7334C43.5333 35.5778 44.8 32.3778 44.8 29.1334C44.8 25.0889 43.5111 21.8889 40.9333 19.5333C38.3556 17.1778 35.3778 16 32 16ZM32 32.6667C31.0667 32.6667 30.2778 32.3445 29.6333 31.7C28.9889 31.0556 28.6667 30.2667 28.6667 29.3333C28.6667 28.4 28.9889 27.6111 29.6333 26.9667C30.2778 26.3222 31.0667 26 32 26C32.9333 26 33.7222 26.3222 34.3667 26.9667C35.0111 27.6111 35.3333 28.4 35.3333 29.3333C35.3333 30.2667 35.0111 31.0556 34.3667 31.7C33.7222 32.3445 32.9333 32.6667 32 32.6667Z" fill="#10CF93"/>
</g>
</g>
</svg>
