<svg width="64" height="64" viewBox="0 0 64 64" fill="none" xmlns="http://www.w3.org/2000/svg">
<g id="flight_class">
<mask id="mask0_20_110" style="mask-type:alpha" maskUnits="userSpaceOnUse" x="0" y="0" width="64" height="64">
<rect id="Bounding box" width="64" height="64" fill="#D9D9D9"/>
</mask>
<g mask="url(#mask0_20_110)">
<path id="flight_class_2" d="M39 33C37.5333 33 36.2778 32.4778 35.2333 31.4333C34.1889 30.3889 33.6667 29.1333 33.6667 27.6667V14.3333C33.6667 12.8667 34.1889 11.6111 35.2333 10.5667C36.2778 9.52222 37.5333 9 39 9H44.3333C45.8 9 47.0556 9.52222 48.1 10.5667C49.1444 11.6111 49.6667 12.8667 49.6667 14.3333V27.6667C49.6667 29.1333 49.1444 30.3889 48.1 31.4333C47.0556 32.4778 45.8 33 44.3333 33H39ZM39 27.6667H44.3333V14.3333H39V27.6667ZM27 46.3333C25.8 46.3333 24.7333 45.9889 23.8 45.3C22.8667 44.6111 22.2222 43.6889 21.8667 42.5333L15.2 20.4C15.1111 20.1778 15.0556 19.9333 15.0333 19.6667C15.0111 19.4 15 19.1333 15 18.8667V11.6667C15 10.9111 15.2556 10.2778 15.7667 9.76667C16.2778 9.25556 16.9111 9 17.6667 9C18.4222 9 19.0556 9.25556 19.5667 9.76667C20.0778 10.2778 20.3333 10.9111 20.3333 11.6667V19.6667L27 41H47C47.7556 41 48.3889 41.2556 48.9 41.7667C49.4111 42.2778 49.6667 42.9111 49.6667 43.6667C49.6667 44.4222 49.4111 45.0556 48.9 45.5667C48.3889 46.0778 47.7556 46.3333 47 46.3333H27ZM25.6667 54.3333C24.9111 54.3333 24.2778 54.0778 23.7667 53.5667C23.2556 53.0556 23 52.4222 23 51.6667C23 50.9111 23.2556 50.2778 23.7667 49.7667C24.2778 49.2556 24.9111 49 25.6667 49H47C47.7556 49 48.3889 49.2556 48.9 49.7667C49.4111 50.2778 49.6667 50.9111 49.6667 51.6667C49.6667 52.4222 49.4111 53.0556 48.9 53.5667C48.3889 54.0778 47.7556 54.3333 47 54.3333H25.6667Z" fill="#10CF93"/>
</g>
</g>
</svg>
