<svg width="64" height="65" viewBox="0 0 64 65" fill="none" xmlns="http://www.w3.org/2000/svg">
<mask id="mask0_44_7" style="mask-type:alpha" maskUnits="userSpaceOnUse" x="0" y="0" width="65" height="65">
<rect x="0.00341797" y="0.0137253" width="64" height="64" fill="#D9D9D9"/>
</mask>
<g mask="url(#mask0_44_7)">
<path d="M34.6697 18.2137L32.2697 20.6137C31.7363 21.1471 31.1141 21.4026 30.403 21.3804C29.6919 21.3582 29.0697 21.0804 28.5363 20.5471C28.0474 20.0137 27.7919 19.3915 27.7697 18.6804C27.7474 17.9693 28.003 17.3471 28.5363 16.8137L35.4697 9.8804C36.003 9.34707 36.6252 9.0804 37.3363 9.0804C38.0474 9.0804 38.6697 9.34707 39.203 9.8804L46.1363 16.8137C46.6252 17.3026 46.8808 17.9137 46.903 18.6471C46.9252 19.3804 46.6697 20.0137 46.1363 20.5471C45.6474 21.036 45.0252 21.2804 44.2697 21.2804C43.5141 21.2804 42.8919 21.036 42.403 20.5471L40.003 18.2137V53.3471C40.003 54.1026 39.7474 54.736 39.2363 55.2471C38.7252 55.7582 38.0919 56.0137 37.3363 56.0137C36.5808 56.0137 35.9474 55.7582 35.4363 55.2471C34.9252 54.736 34.6697 54.1026 34.6697 53.3471V45.3471C33.8697 42.5026 32.4586 40.4026 30.4363 39.0471C28.4141 37.6915 26.203 37.0137 23.803 37.0137C23.3141 37.0137 22.8252 37.0471 22.3363 37.1137C21.8474 37.1804 21.3586 37.2582 20.8697 37.3471L23.2697 39.7471C23.7586 40.236 24.003 40.8471 24.003 41.5804C24.003 42.3137 23.7363 42.9471 23.203 43.4804C22.7141 43.9693 22.0919 44.2137 21.3363 44.2137C20.5808 44.2137 19.9586 43.9693 19.4697 43.4804L12.5363 36.5471C12.003 36.0137 11.7363 35.3915 11.7363 34.6804C11.7363 33.9693 12.003 33.3471 12.5363 32.8137L19.4697 25.8804C19.9586 25.3915 20.5697 25.136 21.303 25.1137C22.0363 25.0915 22.6697 25.3471 23.203 25.8804C23.6919 26.3693 23.9363 26.9915 23.9363 27.7471C23.9363 28.5026 23.6919 29.1248 23.203 29.6137L20.8697 32.0137C21.2697 31.9248 21.6919 31.8582 22.1363 31.8137C22.5808 31.7693 23.0474 31.7471 23.5363 31.7471C25.4919 31.7471 27.4474 32.0471 29.403 32.6471C31.3586 33.2471 33.1141 34.236 34.6697 35.6137V18.2137Z" fill="#10CF93"/>
</g>
</svg>
