<svg width="64" height="64" viewBox="0 0 64 64" fill="none" xmlns="http://www.w3.org/2000/svg">
<g id="id_card">
<mask id="mask0_20_85" style="mask-type:alpha" maskUnits="userSpaceOnUse" x="0" y="0" width="64" height="64">
<rect id="Bounding box" width="64" height="64" fill="#D9D9D9"/>
</mask>
<g mask="url(#mask0_20_85)">
<path id="id_card_2" d="M48.0002 34.6667C48.7557 34.6667 49.389 34.4111 49.9002 33.9C50.4113 33.3889 50.6668 32.7556 50.6668 32C50.6668 31.2445 50.4113 30.6111 49.9002 30.1C49.389 29.5889 48.7557 29.3334 48.0002 29.3334H40.0002C39.2446 29.3334 38.6113 29.5889 38.1002 30.1C37.5891 30.6111 37.3335 31.2445 37.3335 32C37.3335 32.7556 37.5891 33.3889 38.1002 33.9C38.6113 34.4111 39.2446 34.6667 40.0002 34.6667H48.0002ZM48.0002 26.6667C48.7557 26.6667 49.389 26.4111 49.9002 25.9C50.4113 25.3889 50.6668 24.7556 50.6668 24C50.6668 23.2445 50.4113 22.6111 49.9002 22.1C49.389 21.5889 48.7557 21.3334 48.0002 21.3334H40.0002C39.2446 21.3334 38.6113 21.5889 38.1002 22.1C37.5891 22.6111 37.3335 23.2445 37.3335 24C37.3335 24.7556 37.5891 25.3889 38.1002 25.9C38.6113 26.4111 39.2446 26.6667 40.0002 26.6667H48.0002ZM24.0002 34.6667C22.4002 34.6667 20.9557 34.8111 19.6668 35.1C18.3779 35.3889 17.2446 35.8445 16.2668 36.4667C15.3335 37.0445 14.6224 37.7 14.1335 38.4334C13.6446 39.1667 13.4002 39.9556 13.4002 40.8C13.4002 41.3334 13.6002 41.7778 14.0002 42.1334C14.4002 42.4889 14.8891 42.6667 15.4668 42.6667H32.5335C33.1113 42.6667 33.6002 42.4778 34.0002 42.1C34.4002 41.7222 34.6002 41.2445 34.6002 40.6667C34.6002 39.9111 34.3557 39.1778 33.8668 38.4667C33.3779 37.7556 32.6668 37.0889 31.7335 36.4667C30.7557 35.8445 29.6224 35.3889 28.3335 35.1C27.0446 34.8111 25.6002 34.6667 24.0002 34.6667ZM24.0002 32C25.4668 32 26.7224 31.4778 27.7668 30.4334C28.8113 29.3889 29.3335 28.1334 29.3335 26.6667C29.3335 25.2 28.8113 23.9445 27.7668 22.9C26.7224 21.8556 25.4668 21.3334 24.0002 21.3334C22.5335 21.3334 21.2779 21.8556 20.2335 22.9C19.1891 23.9445 18.6668 25.2 18.6668 26.6667C18.6668 28.1334 19.1891 29.3889 20.2335 30.4334C21.2779 31.4778 22.5335 32 24.0002 32ZM10.6668 53.3334C9.20016 53.3334 7.94461 52.8111 6.90016 51.7667C5.85572 50.7222 5.3335 49.4667 5.3335 48V16C5.3335 14.5334 5.85572 13.2778 6.90016 12.2334C7.94461 11.1889 9.20016 10.6667 10.6668 10.6667H53.3335C54.8002 10.6667 56.0557 11.1889 57.1002 12.2334C58.1446 13.2778 58.6668 14.5334 58.6668 16V48C58.6668 49.4667 58.1446 50.7222 57.1002 51.7667C56.0557 52.8111 54.8002 53.3334 53.3335 53.3334H10.6668ZM10.6668 48H53.3335V16H10.6668V48Z" fill="#10CF93"/>
</g>
</g>
</svg>
