<svg width="64" height="64" viewBox="0 0 64 64" fill="none" xmlns="http://www.w3.org/2000/svg">
<g id="local_atm">
<mask id="mask0_20_91" style="mask-type:alpha" maskUnits="userSpaceOnUse" x="0" y="0" width="64" height="64">
<rect id="Bounding box" width="64" height="64" fill="#D9D9D9"/>
</mask>
<g mask="url(#mask0_20_91)">
<path id="local_atm_2" d="M34.6668 37.3333H26.6668C25.9113 37.3333 25.2779 37.5889 24.7668 38.1C24.2557 38.6111 24.0002 39.2444 24.0002 40C24.0002 40.7555 24.2557 41.3889 24.7668 41.9C25.2779 42.4111 25.9113 42.6667 26.6668 42.6667H29.3335C29.3335 43.4222 29.5891 44.0555 30.1002 44.5667C30.6113 45.0778 31.2446 45.3333 32.0002 45.3333C32.7557 45.3333 33.3891 45.0778 33.9002 44.5667C34.4113 44.0555 34.6668 43.4222 34.6668 42.6667H37.3335C38.0891 42.6667 38.7224 42.4111 39.2335 41.9C39.7446 41.3889 40.0002 40.7555 40.0002 40V32C40.0002 31.2444 39.7446 30.6111 39.2335 30.1C38.7224 29.5889 38.0891 29.3333 37.3335 29.3333H29.3335V26.6667H37.3335C38.0891 26.6667 38.7224 26.4111 39.2335 25.9C39.7446 25.3889 40.0002 24.7555 40.0002 24C40.0002 23.2444 39.7446 22.6111 39.2335 22.1C38.7224 21.5889 38.0891 21.3333 37.3335 21.3333H34.6668C34.6668 20.5778 34.4113 19.9444 33.9002 19.4333C33.3891 18.9222 32.7557 18.6667 32.0002 18.6667C31.2446 18.6667 30.6113 18.9222 30.1002 19.4333C29.5891 19.9444 29.3335 20.5778 29.3335 21.3333H26.6668C25.9113 21.3333 25.2779 21.5889 24.7668 22.1C24.2557 22.6111 24.0002 23.2444 24.0002 24V32C24.0002 32.7555 24.2557 33.3889 24.7668 33.9C25.2779 34.4111 25.9113 34.6667 26.6668 34.6667H34.6668V37.3333ZM10.6668 53.3333C9.20016 53.3333 7.94461 52.8111 6.90016 51.7667C5.85572 50.7222 5.3335 49.4667 5.3335 48V16C5.3335 14.5333 5.85572 13.2778 6.90016 12.2333C7.94461 11.1889 9.20016 10.6667 10.6668 10.6667H53.3335C54.8002 10.6667 56.0557 11.1889 57.1002 12.2333C58.1446 13.2778 58.6668 14.5333 58.6668 16V48C58.6668 49.4667 58.1446 50.7222 57.1002 51.7667C56.0557 52.8111 54.8002 53.3333 53.3335 53.3333H10.6668ZM10.6668 48H53.3335V16H10.6668V48Z" fill="#10CF93"/>
</g>
</g>
</svg>
