<svg width="17" height="17" viewBox="0 0 17 17" fill="none" xmlns="http://www.w3.org/2000/svg">
<mask id="mask0_73_36" style="mask-type:alpha" maskUnits="userSpaceOnUse" x="0" y="0" width="17" height="17">
<rect x="0.153809" y="0.0517731" width="16" height="16" fill="#D9D9D9"/>
</mask>
<g mask="url(#mask0_73_36)">
<path d="M4.03717 10.7184L5.28717 11.9684C5.4094 12.0907 5.47051 12.2434 5.47051 12.4268C5.47051 12.6101 5.4094 12.7684 5.28717 12.9018C5.15384 13.0351 4.99551 13.1018 4.81217 13.1018C4.62884 13.1018 4.47051 13.0351 4.33717 12.9018L1.95384 10.5184C1.88717 10.4518 1.83995 10.3795 1.81217 10.3018C1.7844 10.224 1.77051 10.1407 1.77051 10.0518C1.77051 9.96288 1.7844 9.87955 1.81217 9.80177C1.83995 9.72399 1.88717 9.65177 1.95384 9.5851L4.35384 7.1851C4.48717 7.05177 4.64273 6.98788 4.82051 6.99344C4.99829 6.99899 5.15384 7.06844 5.28717 7.20177C5.4094 7.3351 5.47329 7.49066 5.47884 7.66844C5.4844 7.84621 5.42051 8.00177 5.28717 8.1351L4.03717 9.3851H8.15384C8.34273 9.3851 8.50106 9.44899 8.62884 9.57677C8.75662 9.70455 8.82051 9.86288 8.82051 10.0518C8.82051 10.2407 8.75662 10.399 8.62884 10.5268C8.50106 10.6545 8.34273 10.7184 8.15384 10.7184H4.03717ZM12.2705 6.71844H8.15384C7.96495 6.71844 7.80662 6.65455 7.67884 6.52677C7.55106 6.39899 7.48717 6.24066 7.48717 6.05177C7.48717 5.86288 7.55106 5.70455 7.67884 5.57677C7.80662 5.44899 7.96495 5.3851 8.15384 5.3851H12.2705L11.0205 4.1351C10.8983 4.01288 10.8372 3.8601 10.8372 3.67677C10.8372 3.49344 10.8983 3.3351 11.0205 3.20177C11.1538 3.06844 11.3122 3.00177 11.4955 3.00177C11.6788 3.00177 11.8372 3.06844 11.9705 3.20177L14.3538 5.5851C14.4205 5.65177 14.4677 5.72399 14.4955 5.80177C14.5233 5.87955 14.5372 5.96288 14.5372 6.05177C14.5372 6.14066 14.5233 6.22399 14.4955 6.30177C14.4677 6.37955 14.4205 6.45177 14.3538 6.51844L11.9538 8.91844C11.8205 9.05177 11.665 9.11566 11.4872 9.1101C11.3094 9.10455 11.1538 9.0351 11.0205 8.90177C10.8983 8.76844 10.8344 8.61288 10.8288 8.4351C10.8233 8.25733 10.8872 8.10177 11.0205 7.96844L12.2705 6.71844Z" fill="#041922" fill-opacity="0.5"/>
</g>
</svg>
