<svg width="17" height="17" viewBox="0 0 17 17" fill="none" xmlns="http://www.w3.org/2000/svg">
<mask id="mask0_73_42" style="mask-type:alpha" maskUnits="userSpaceOnUse" x="0" y="0" width="17" height="17">
<rect x="0.153809" y="0.0517731" width="16" height="16" fill="#D9D9D9"/>
</mask>
<g mask="url(#mask0_73_42)">
<path d="M6.15352 8.71844C5.96463 8.71844 5.80629 8.65455 5.67852 8.52678C5.55074 8.399 5.48685 8.24066 5.48685 8.05178V3.93511L4.23685 5.18511C4.11463 5.30733 3.96185 5.36844 3.77852 5.36844C3.59518 5.36844 3.43685 5.30733 3.30352 5.18511C3.17018 5.05178 3.10352 4.89344 3.10352 4.71011C3.10352 4.52678 3.17018 4.36844 3.30352 4.23511L5.68685 1.85178C5.75352 1.78511 5.82574 1.73789 5.90352 1.71011C5.98129 1.68233 6.06463 1.66844 6.15352 1.66844C6.2424 1.66844 6.32574 1.68233 6.40352 1.71011C6.48129 1.73789 6.55352 1.78511 6.62018 1.85178L9.02018 4.25178C9.15352 4.38511 9.2174 4.54066 9.21185 4.71844C9.20629 4.89622 9.13685 5.05178 9.00352 5.18511C8.87018 5.30733 8.71463 5.37122 8.53685 5.37678C8.35907 5.38233 8.20352 5.31844 8.07018 5.18511L6.82018 3.93511V8.05178C6.82018 8.24066 6.75629 8.399 6.62852 8.52678C6.50074 8.65455 6.3424 8.71844 6.15352 8.71844ZM10.1535 14.4351C10.0646 14.4351 9.98129 14.4212 9.90352 14.3934C9.82574 14.3657 9.75352 14.3184 9.68685 14.2518L7.28685 11.8518C7.15352 11.7184 7.08963 11.5629 7.09518 11.3851C7.10074 11.2073 7.17018 11.0518 7.30352 10.9184C7.43685 10.7962 7.5924 10.7323 7.77018 10.7268C7.94796 10.7212 8.10352 10.7851 8.23685 10.9184L9.48685 12.1684V8.05178C9.48685 7.86289 9.55074 7.70455 9.67852 7.57678C9.80629 7.449 9.96463 7.38511 10.1535 7.38511C10.3424 7.38511 10.5007 7.449 10.6285 7.57678C10.7563 7.70455 10.8202 7.86289 10.8202 8.05178V12.1684L12.0702 10.9184C12.1924 10.7962 12.3452 10.7351 12.5285 10.7351C12.7118 10.7351 12.8702 10.7962 13.0035 10.9184C13.1368 11.0518 13.2035 11.2101 13.2035 11.3934C13.2035 11.5768 13.1368 11.7351 13.0035 11.8684L10.6202 14.2518C10.5535 14.3184 10.4813 14.3657 10.4035 14.3934C10.3257 14.4212 10.2424 14.4351 10.1535 14.4351Z" fill="white"/>
</g>
</svg>
